<?xml version="1.0" encoding="UTF-8" standalone="no"?>
<svg
   xmlns:dc="http://purl.org/dc/elements/1.1/"
   xmlns:cc="http://creativecommons.org/ns#"
   xmlns:rdf="http://www.w3.org/1999/02/22-rdf-syntax-ns#"
   xmlns:svg="http://www.w3.org/2000/svg"
   xmlns="http://www.w3.org/2000/svg"
   xmlns:sodipodi="http://sodipodi.sourceforge.net/DTD/sodipodi-0.dtd"
   xmlns:inkscape="http://www.inkscape.org/namespaces/inkscape"
   width="74.887321"
   height="74.439262"
   viewBox="0 0 19.813937 19.695387"
   version="1.1"
   id="svg3185"
   sodipodi:docname="jagged-bit.svg"
   inkscape:version="1.0.1 (3bc2e813f5, 2020-09-07)"
   inkscape:export-filename="C:\Users\J\Documents\2021 Solidus Meetup\jagged-bits-logo.png"
   inkscape:export-xdpi="96"
   inkscape:export-ydpi="96">
  <defs
     id="defs3179" />
  <sodipodi:namedview
     id="base"
     pagecolor="#ffffff"
     bordercolor="#666666"
     borderopacity="1.0"
     inkscape:pageopacity="0.0"
     inkscape:pageshadow="2"
     inkscape:zoom="1.6786715"
     inkscape:cx="-16.478725"
     inkscape:cy="210.94747"
     inkscape:document-units="px"
     inkscape:current-layer="layer1"
     inkscape:document-rotation="0"
     showgrid="false"
     inkscape:pagecheckerboard="false"
     units="px"
     inkscape:window-width="2560"
     inkscape:window-height="1377"
     inkscape:window-x="-8"
     inkscape:window-y="-8"
     inkscape:window-maximized="1"
     inkscape:snap-intersection-paths="true"
     inkscape:snap-nodes="true"
     inkscape:snap-smooth-nodes="true"
     showguides="false" />
  <metadata
     id="metadata3182">
    <rdf:RDF>
      <cc:Work
         rdf:about="">
        <dc:format>image/svg+xml</dc:format>
        <dc:type
           rdf:resource="http://purl.org/dc/dcmitype/StillImage" />
        <dc:title></dc:title>
      </cc:Work>
    </rdf:RDF>
  </metadata>
  <g
     inkscape:label="logo"
     inkscape:groupmode="layer"
     id="layer1"
     transform="translate(-18.511514,19.947116)">
    <path
       style="fill:#ffffff;fill-rule:evenodd;stroke:#ff0066;stroke-width:1.32292;stroke-linecap:butt;stroke-linejoin:miter;stroke-miterlimit:4;stroke-dasharray:none;stroke-opacity:1"
       d="m 105.35255,25.435693 c 2.14063,0.03592 6.00116,0.04138 7.98949,0.04136 l -0.0281,-11.535705"
       id="path1402"
       sodipodi:nodetypes="ccc" />
    <path
       style="fill:#2ad4ff;fill-opacity:1;fill-rule:evenodd;stroke:#0055d4;stroke-width:1.32292;stroke-miterlimit:4;stroke-dasharray:none;stroke-opacity:1"
       d="m 95.821436,25.552296 c 3.182322,-0.05472 6.367004,-0.116513 9.531114,-0.116603 0.11403,-2.047196 1.3771,-3.780912 3.26716,-4.560303 -0.51453,-2.403739 0.50491,-5.168834 2.75202,-6.324377 0.60207,-0.307706 1.27077,-0.571085 1.94224,-0.609665 V 8.1383357 Z"
       id="path173-5-6-1-3-1-7"
       sodipodi:nodetypes="ccccccc" />
    <path
       style="fill:none;fill-rule:evenodd;stroke:#0055d4;stroke-width:1.85208;stroke-miterlimit:4;stroke-dasharray:none;stroke-opacity:1"
       d="m 13.572822,22.904643 c 3.942593,5e-6 0.620914,4e-6 4.563514,4e-6 0,0 0.0084,6.399626 0.0084,7.79942 0.687193,0.280111 1.319396,0.688383 1.844758,1.224768 1.137523,1.113995 1.577842,2.913113 0.939541,4.393985 0.584861,0.402244 1.093504,0.923132 1.451262,1.538243 0.691244,1.190965 0.683813,3.02754 -0.223555,4.388389 l -7.885597,-0.0012 V 34.89529 c -1.972318,1.36e-4 -4.4460767,-0.85726 -4.4482259,-4.202372"
       id="path884-7"
       sodipodi:nodetypes="cccccccccc" />
    <text
       xml:space="preserve"
       style="font-size:10.5833px;line-height:1.25;font-family:Trench;-inkscape-font-specification:Trench;stroke-width:0.264583"
       x="3.5151787"
       y="-16.02619"
       id="text3801"><tspan
         sodipodi:role="line"
         id="tspan3799"
         x="3.5151787"
         y="-16.02619"
         style="font-style:normal;font-variant:normal;font-weight:normal;font-stretch:normal;font-family:'DO 4 Brain';-inkscape-font-specification:'DO 4 Brain';stroke-width:0.264583" /></text>
    <path
       style="fill:#00ffcc;fill-rule:evenodd;stroke:#217867;stroke-width:1.10298;stroke-miterlimit:4;stroke-dasharray:none;stroke-opacity:1"
       d="m -24.414368,29.52714 -5.729746,5.767022 c -0.04301,-0.0036 -0.08621,-0.0074 -0.129234,-0.01104 -0.04284,-0.0036 -0.08585,-0.0074 -0.128681,-0.0092 -0.0432,-0.0036 -0.0864,-0.0055 -0.129601,-0.0074 -0.04301,-0.0019 -0.08621,-0.0036 -0.129232,-0.0055 -0.04301,-0.0015 -0.08621,-0.0036 -0.129233,-0.0036 -0.0432,-0.0015 -0.0864,-0.0036 -0.1296,-0.0036 l -0.129602,-0.0015 c -0.01104,-2e-5 -0.02041,-2e-5 -0.03143,0 -0.0432,0 -0.0864,2.94e-4 -0.129601,9.73e-4 -0.04301,3.31e-4 -0.08621,9.72e-4 -0.129233,0.0019 -0.0432,9.72e-4 -0.0864,0.0019 -0.1296,0.0036 -0.04301,0.0015 -0.08621,0.0036 -0.129233,0.0055 -0.04301,0.0019 -0.08621,0.0036 -0.129233,0.0074 -0.04301,0.0036 -0.08621,0.0055 -0.129232,0.0092 -0.04301,0.0036 -0.08621,0.0074 -0.129233,0.01104 -0.04301,0.0036 -0.08585,0.0092 -0.128682,0.01287 l -0.01655,0.0019 c -2.391516,-3.658025 -6.911063,-4.677431 -10.836424,-4.260979 -2.82634,0.30549 -5.718491,2.119749 -7.457105,3.776374 l -5.297801,-5.298162 z"
       id="path3123"
       sodipodi:nodetypes="ccscsccccccccsssscccccc" />
    <g
       id="g1425"
       transform="translate(-71.24185,-28.528263)">
      <path
         style="fill:#ffffff;fill-rule:evenodd;stroke:#ff0066;stroke-width:1.32292;stroke-linecap:butt;stroke-linejoin:miter;stroke-miterlimit:4;stroke-dasharray:none;stroke-opacity:1"
         d="m 98.40593,9.3873386 c -2.07419,-0.03844 -6.078277,-0.013515 -7.989491,-0.0135 l 0.02807,11.5078454"
         id="path1416"
         sodipodi:nodetypes="ccc" />
      <path
         style="fill:#2ad4ff;fill-opacity:1;fill-rule:evenodd;stroke:#0055d4;stroke-width:1.32292;stroke-miterlimit:4;stroke-dasharray:none;stroke-opacity:1"
         d="m 107.93704,9.2707366 c -3.18232,0.05472 -6.367,0.116512 -9.53111,0.116602 -0.114029,2.0471964 -1.377097,3.7809124 -3.267158,4.5603034 0.514529,2.403739 -0.504913,5.168834 -2.752025,6.324378 -0.602068,0.307705 -1.27077,0.571084 -1.942238,0.609664 l -2e-6,5.803013 z"
         id="path173-5-6-1-3-1"
         sodipodi:nodetypes="ccccccc" />
    </g>
    <text
       xml:space="preserve"
       style="font-size:10.5833px;line-height:1.25;font-family:'Overpass Mono';-inkscape-font-specification:'Overpass Mono';stroke-width:0.264583"
       x="30.956247"
       y="17.197916"
       id="text858"><tspan
         sodipodi:role="line"
         id="tspan856"
         x="30.956247"
         y="17.197916"
         style="stroke-width:0.264583" /></text>
    <path
       style="fill:none;fill-rule:evenodd;stroke:#ff0066;stroke-width:1.32292;stroke-miterlimit:4;stroke-dasharray:none;stroke-opacity:1"
       d="m -16.481793,40.22437 c 3.485328,4e-6 -0.09194,3e-6 3.393394,3e-6 0,0 0.04787,5.640031 0.04787,6.877476 m 0,0 c 0,2.61045 -1.770152,3.674293 -3.381201,3.658767 m 0,0 c -1.743567,0 -3.930433,-0.757955 -3.932317,-3.715098"
       id="path884-2"
       sodipodi:nodetypes="ccccccc" />
    <path
       style="fill:none;fill-rule:evenodd;stroke:#ff0066;stroke-width:1.32292;stroke-miterlimit:4;stroke-dasharray:3.96875, 3.96875;stroke-dashoffset:0;stroke-opacity:1"
       d="m 16.175943,30.25829 c -0.146737,-0.0094 -0.293774,-0.01368 -0.440716,-0.01305 -0.494153,0.0021 -0.987331,0.06054 -1.464327,0.175366 1e-6,0.918338 0,2.148723 0,3.067089"
       id="path989"
       sodipodi:nodetypes="cscc" />
    <path
       style="fill:none;fill-rule:evenodd;stroke:#ff0066;stroke-width:1.32292;stroke-miterlimit:4;stroke-dasharray:3.96875, 3.96875;stroke-dashoffset:0;stroke-opacity:1"
       d="m 16.027324,34.501706 c 0.759485,-0.371105 1.421888,-1.012916 1.795359,-1.961045"
       id="path918"
       sodipodi:nodetypes="cc" />
    <path
       style="fill:none;stroke:#ff0066;stroke-width:1.32292;stroke-linecap:butt;stroke-linejoin:miter;stroke-miterlimit:4;stroke-dasharray:3.96875, 3.96875;stroke-dashoffset:0;stroke-opacity:1"
       d="M 9.6773321,29.882414 V 22.8182 h 3.1174409"
       id="path962"
       sodipodi:nodetypes="ccc" />
    <path
       d="m 24.792667,31.886287 q 0.36018,0 0.67338,-0.133109 0.32103,-0.140941 0.55593,-0.37584 0.242732,-0.24273 0.375841,-0.563762 0.140941,-0.32103 0.140941,-0.68121 0,-0.360182 -0.140941,-0.673381 -0.133109,-0.321031 -0.375841,-0.555931 -0.2349,-0.242731 -0.55593,-0.375841 -0.3132,-0.14094 -0.67338,-0.14094 -0.360181,0 -0.681212,0.14094 -0.32103,0.13311 -0.563759,0.375841 -0.234902,0.2349 -0.375841,0.555931 -0.133111,0.313199 -0.133111,0.673381 0,0.36018 0.133111,0.68121 0.140939,0.321032 0.375841,0.563762 0.242729,0.234899 0.563759,0.37584 0.321031,0.133109 0.681212,0.133109 z m 0,-4.126415 q 0.493291,0 0.923942,0.187921 0.430649,0.18792 0.751681,0.50895 0.32103,0.32103 0.508949,0.751682 0.187921,0.43065 0.187921,0.923941 v 2.067123 q 0,0.13311 -0.09397,0.22707 -0.08613,0.08613 -0.21924,0.08613 -0.133111,0 -0.22707,-0.08613 -0.08613,-0.09396 -0.08613,-0.22707 v -0.454141 q -0.328861,0.35235 -0.783001,0.56376 -0.446311,0.20358 -0.963092,0.20358 -0.49329,0 -0.931771,-0.187919 -0.430651,-0.18792 -0.751681,-0.508951 -0.321031,-0.321031 -0.508951,-0.751682 -0.18792,-0.43848 -0.18792,-0.93177 0,-0.493291 0.18792,-0.923941 0.18792,-0.430652 0.508951,-0.751682 0.32103,-0.32103 0.751681,-0.50895 0.438481,-0.187921 0.931771,-0.187921 z"
       style="font-style:normal;font-variant:normal;font-weight:bold;font-stretch:normal;font-size:10.5833px;line-height:1.25;font-family:'DO 4 Brain';-inkscape-font-specification:'DO 4 Brain Bold';fill:#0055d4;fill-opacity:1;stroke:#0055d4;stroke-width:0.551392;stroke-miterlimit:4;stroke-dasharray:none;stroke-opacity:1"
       id="path995" />
    <path
       d="m 30.619996,31.886287 q 0.360179,0 0.67338,-0.133109 0.321031,-0.140941 0.555931,-0.37584 0.24273,-0.24273 0.37584,-0.563762 0.14094,-0.32103 0.14094,-0.68121 0,-0.360182 -0.14094,-0.673381 -0.13311,-0.321031 -0.37584,-0.555931 -0.2349,-0.242731 -0.555931,-0.375841 -0.313201,-0.14094 -0.67338,-0.14094 -0.360182,0 -0.681211,0.14094 -0.321032,0.13311 -0.563761,0.375841 -0.234902,0.2349 -0.37584,0.555931 -0.133111,0.313199 -0.133111,0.673381 0,0.36018 0.133111,0.68121 0.140938,0.321032 0.37584,0.563762 0.242729,0.234899 0.563761,0.37584 0.321029,0.133109 0.681211,0.133109 z m 0,-4.126415 q 0.493291,0 0.923941,0.187921 0.43065,0.18792 0.751681,0.50895 0.32103,0.32103 0.50895,0.751682 0.18792,0.43065 0.18792,0.923941 v 2.067123 q 0,0.49329 -0.18792,0.92394 -0.18792,0.430652 -0.50895,0.751682 -0.321031,0.321031 -0.751681,0.508951 -0.43065,0.187919 -0.923941,0.187919 -0.13311,0 -0.227072,-0.09397 -0.09395,-0.08613 -0.09395,-0.219239 0,-0.13311 0.09395,-0.22707 0.09397,-0.08613 0.227072,-0.08613 0.360179,0 0.67338,-0.140939 0.321031,-0.133111 0.555931,-0.375842 0.24273,-0.234899 0.37584,-0.55593 0.14094,-0.313201 0.14094,-0.673381 v -0.45414 q -0.32886,0.352349 -0.783001,0.563759 -0.446311,0.203581 -0.96309,0.203581 -0.493292,0 -0.931773,-0.18792 -0.43065,-0.18792 -0.751681,-0.508951 -0.32103,-0.321031 -0.508949,-0.751681 -0.187921,-0.438481 -0.187921,-0.931771 0,-0.493291 0.187921,-0.923941 0.187919,-0.430651 0.508949,-0.751682 0.321031,-0.32103 0.751681,-0.50895 0.438481,-0.187921 0.931773,-0.187921 z"
       style="font-style:normal;font-variant:normal;font-weight:bold;font-stretch:normal;font-size:10.5833px;line-height:1.25;font-family:'DO 4 Brain';-inkscape-font-specification:'DO 4 Brain Bold';fill:#0055d4;fill-opacity:1;stroke:#0055d4;stroke-width:0.551392;stroke-miterlimit:4;stroke-dasharray:none;stroke-opacity:1"
       id="path997" />
    <path
       d="m 36.447327,31.886287 q 0.360182,0 0.673382,-0.133109 0.321031,-0.140941 0.555931,-0.37584 0.24273,-0.24273 0.37584,-0.563762 0.140941,-0.32103 0.140941,-0.68121 0,-0.360182 -0.140941,-0.673381 -0.13311,-0.321031 -0.37584,-0.555931 -0.2349,-0.242731 -0.555931,-0.375841 -0.3132,-0.14094 -0.673382,-0.14094 -0.36018,0 -0.68121,0.14094 -0.32103,0.13311 -0.563762,0.375841 -0.2349,0.2349 -0.37584,0.555931 -0.13311,0.313199 -0.13311,0.673381 0,0.36018 0.13311,0.68121 0.14094,0.321032 0.37584,0.563762 0.242732,0.234899 0.563762,0.37584 0.32103,0.133109 0.68121,0.133109 z m 0,-4.126415 q 0.493293,0 0.923941,0.187921 0.430651,0.18792 0.751682,0.50895 0.321031,0.32103 0.508951,0.751682 0.18792,0.43065 0.18792,0.923941 v 2.067123 q 0,0.49329 -0.18792,0.92394 -0.18792,0.430652 -0.508951,0.751682 -0.321031,0.321031 -0.751682,0.508951 -0.430648,0.187919 -0.923941,0.187919 -0.13311,0 -0.22707,-0.09397 -0.09397,-0.08613 -0.09397,-0.219239 0,-0.13311 0.09397,-0.22707 0.09397,-0.08613 0.22707,-0.08613 0.360182,0 0.673382,-0.140939 0.321031,-0.133111 0.555931,-0.375842 0.24273,-0.234899 0.37584,-0.55593 0.140941,-0.313201 0.140941,-0.673381 v -0.45414 q -0.328861,0.352349 -0.783002,0.563759 -0.446311,0.203581 -0.963092,0.203581 -0.493291,0 -0.931771,-0.18792 -0.430651,-0.18792 -0.751681,-0.508951 -0.32103,-0.321031 -0.508951,-0.751681 -0.18792,-0.438481 -0.18792,-0.931771 0,-0.493291 0.18792,-0.923941 0.187921,-0.430651 0.508951,-0.751682 0.32103,-0.32103 0.751681,-0.50895 0.43848,-0.187921 0.931771,-0.187921 z"
       style="font-style:normal;font-variant:normal;font-weight:bold;font-stretch:normal;font-size:10.5833px;line-height:1.25;font-family:'DO 4 Brain';-inkscape-font-specification:'DO 4 Brain Bold';fill:#0055d4;fill-opacity:1;stroke:#0055d4;stroke-width:0.551392;stroke-miterlimit:4;stroke-dasharray:none;stroke-opacity:1"
       id="path999" />
    <path
       id="path1001"
       style="font-style:normal;font-variant:normal;font-weight:bold;font-stretch:normal;font-size:10.5833px;line-height:1.25;font-family:'DO 4 Brain';-inkscape-font-specification:'DO 4 Brain Bold';fill:#0055d4;fill-opacity:1;stroke:#0055d4;stroke-width:0.551392;stroke-miterlimit:4;stroke-dasharray:none;stroke-opacity:1"
       d="m 42.270833,28.386273 c -0.836528,-0.01305 -1.625387,0.649066 -1.735205,1.482563 -0.06605,0.437028 0.03254,0.899024 0.294479,1.257941 0.8091,-0.809102 1.618202,-1.618203 2.427303,-2.427304 -0.28588,-0.204034 -0.635166,-0.31602 -0.986577,-0.3132 z m 2.059292,1.432892 c 0.240844,-0.0062 0.358403,0.257998 0.308614,0.466016 -0.04769,1.104195 -0.968749,2.085272 -2.065718,2.209156 -0.763259,0.104054 -1.562506,-0.189933 -2.071491,-0.769875 -0.702513,-0.745525 -0.811596,-1.960564 -0.263285,-2.823453 0.487189,-0.823764 1.501629,-1.282245 2.441681,-1.10651 0.503277,0.09147 0.996201,0.34114 1.323944,0.738376 0.09741,0.166404 -0.0078,0.349184 -0.142238,0.455317 -0.861684,0.861684 -1.723369,1.723369 -2.585054,2.585053 0.659023,0.486897 1.657707,0.394536 2.223725,-0.195752 0.344287,-0.341119 0.52703,-0.826718 0.522163,-1.308591 0.02278,-0.145134 0.163953,-0.253359 0.307659,-0.249737 z" />
    <path
       d="m 48.101991,31.886287 q 0.360181,0 0.673382,-0.133109 0.32103,-0.140941 0.55593,-0.37584 0.242731,-0.24273 0.375841,-0.563762 0.14094,-0.32103 0.14094,-0.68121 0,-0.360182 -0.14094,-0.673381 -0.13311,-0.321031 -0.375841,-0.555931 -0.2349,-0.242731 -0.55593,-0.375841 -0.313201,-0.14094 -0.673382,-0.14094 -0.360179,0 -0.68121,0.14094 -0.321031,0.13311 -0.563761,0.375841 -0.2349,0.2349 -0.375842,0.555931 -0.133109,0.313199 -0.133109,0.673381 0,0.36018 0.133109,0.68121 0.140942,0.321032 0.375842,0.563762 0.24273,0.234899 0.563761,0.37584 0.321031,0.133109 0.68121,0.133109 z m 2.059293,-6.185708 q 0.133111,0 0.219241,0.09397 0.09397,0.08613 0.09397,0.219239 v 4.118587 q 0,0.49329 -0.18792,0.93177 -0.187921,0.430651 -0.508952,0.751682 -0.32103,0.321031 -0.75168,0.50895 -0.430652,0.18792 -0.923942,0.18792 -0.493291,0 -0.93177,-0.18792 -0.430651,-0.187919 -0.751683,-0.50895 -0.32103,-0.321031 -0.50895,-0.751682 -0.18792,-0.43848 -0.18792,-0.93177 0,-0.493291 0.18792,-0.923941 0.18792,-0.430652 0.50895,-0.751682 0.321032,-0.32103 0.751683,-0.50895 0.438479,-0.187921 0.93177,-0.187921 0.516782,0 0.963093,0.211409 0.45414,0.203582 0.783,0.555932 v -2.513434 q 0,-0.133111 0.08613,-0.219239 0.09396,-0.09397 0.22707,-0.09397 z"
       style="font-style:normal;font-variant:normal;font-weight:bold;font-stretch:normal;font-size:10.5833px;line-height:1.25;font-family:'DO 4 Brain';-inkscape-font-specification:'DO 4 Brain Bold';fill:#0055d4;fill-opacity:1;stroke:#0055d4;stroke-width:0.551392;stroke-miterlimit:4;stroke-dasharray:none;stroke-opacity:1"
       id="path1003" />
    <path
       d="m -56.717364,-30.451146 h 2.25223 c 0.11395,0 0.207792,0.04022 0.281527,0.120647 0.08043,0.08043 0.120648,0.177628 0.120648,0.291581 0,0.113951 -0.04022,0.211146 -0.120648,0.291585 -0.07373,0.07373 -0.167571,0.11059 -0.281527,0.11059 h -2.252217 v 4.906616 c 0,0.113951 -0.04022,0.211145 -0.120648,0.291581 -0.07373,0.07373 -0.167571,0.110593 -0.281527,0.110593 -0.113951,0 -0.211144,-0.03686 -0.291581,-0.110593 -0.07373,-0.08043 -0.110593,-0.177625 -0.110593,-0.291581 v -4.906616 h -0.693764 c -0.11395,0 -0.211144,-0.03686 -0.291582,-0.11059 -0.07373,-0.08043 -0.110593,-0.177626 -0.110593,-0.291585 0,-0.11395 0.03686,-0.211142 0.110593,-0.291581 0.08043,-0.08043 0.177626,-0.120647 0.291582,-0.120647 h 0.693751 v -2.281656 c 0,-0.113951 0.03686,-0.21114 0.110593,-0.291581 0.08043,-0.08043 0.177626,-0.120648 0.291583,-0.120648 l 1.308781,0.0019 c 0.25402,0 0.491473,-0.0497 0.712361,-0.149098 0.22641,-0.09388 0.422448,-0.22641 0.588113,-0.397598 0.171187,-0.165666 0.30372,-0.361704 0.397598,-0.588113 0.0994,-0.220887 0.149098,-0.45834 0.149098,-0.712361 v -0.480478 c -0.231932,0.248499 -0.508041,0.447297 -0.828328,0.596397 -0.314765,0.143577 -0.654379,0.215366 -1.018842,0.215366 -0.347899,0 -0.676469,-0.06627 -0.985711,-0.1988 -0.303721,-0.132532 -0.568786,-0.312002 -0.795195,-0.538414 -0.226409,-0.226409 -0.40588,-0.491474 -0.538413,-0.795192 -0.132532,-0.309245 -0.198798,-0.637815 -0.198798,-0.98571 0,-0.347898 0.06627,-0.673709 0.198798,-0.977427 0.132533,-0.30372 0.312004,-0.568785 0.538413,-0.795197 0.226409,-0.226407 0.491474,-0.405879 0.795195,-0.538411 0.309242,-0.132533 0.637812,-0.1988 0.985711,-0.1988 v 5e-6 c 0.347897,0 0.673706,0.06627 0.977425,0.198797 0.303721,0.132533 0.568786,0.312005 0.795196,0.538414 0.226409,0.22641 0.40588,0.491474 0.538412,0.795195 0.132532,0.30372 0.198799,0.629528 0.198799,0.977426 v 2.186787 c 0,0.347895 -0.06627,0.673706 -0.198799,0.977426 -0.132532,0.303721 -0.312003,0.568786 -0.538412,0.795195 -0.22641,0.226409 -0.491475,0.405881 -0.795196,0.538411 -0.303719,0.132532 -0.629528,0.1988 -0.977425,0.1988 l -0.906608,-1.9e-5 z"
       style="font-style:normal;font-variant:normal;font-weight:bold;font-stretch:normal;font-size:5.46946px;line-height:1.25;font-family:'DO 4 Brain';-inkscape-font-specification:'DO 4 Brain Bold';fill:#ff0066;fill-opacity:1;stroke:#ff0066;stroke-width:0.551492;stroke-miterlimit:4;stroke-dasharray:none;stroke-opacity:1"
       id="path926-0-3-5-0-1"
       sodipodi:nodetypes="cscssscssscscscscsccccccccsccscscssscssssssssssccc" />
    <path
       style="fill:none;fill-rule:evenodd;stroke:#0055d4;stroke-width:1.79578;stroke-miterlimit:4;stroke-dasharray:none;stroke-opacity:1"
       d="m -135.17287,-42.618171 c 3.9426,5e-6 0.62092,4e-6 4.56352,4e-6 0,0 0.008,6.399626 0.008,7.79942 0.68719,0.280111 1.31939,0.688383 1.84475,1.224768 1.13753,1.113995 1.57784,2.913113 0.93954,4.393985 0.58486,0.402244 1.09351,0.923132 1.45126,1.538243 0.69125,1.190965 0.68382,3.02754 -0.22355,4.388389 l -7.8856,-0.0012 v -7.352971 c -1.97231,1.36e-4 -4.44607,-0.85726 -4.44822,-4.202372"
       id="path884-7-4"
       sodipodi:nodetypes="cccccccccc" />
    <path
       d="m -117.82363,-28.775566 q 0.17093,0 0.28153,0.120648 0.12065,0.120648 0.12065,0.291581 v 5.308797 q 0,0.633441 -0.24131,1.18644 -0.24131,0.552999 -0.65354,0.96524 -0.41224,0.41224 -0.96524,0.653536 -0.553,0.241314 -1.18643,0.241314 -0.17093,0 -0.29159,-0.120593 -0.12065,-0.110666 -0.12065,-0.281536 0,-0.170963 0.12065,-0.291574 0.12065,-0.110666 0.29159,-0.110666 0.46251,0 0.86469,-0.180889 0.41223,-0.170963 0.71387,-0.482611 0.31169,-0.301629 0.48262,-0.713869 0.18098,-0.402185 0.18098,-0.8647 v -0.583162 q -0.42229,0.452453 -1.00546,0.723926 -0.57311,0.261418 -1.2367,0.261418 -0.63344,0 -1.19649,-0.241309 -0.55301,-0.241308 -0.96524,-0.653545 -0.41224,-0.412236 -0.65354,-0.965235 -0.24131,-0.563055 -0.24131,-1.196491 v -2.654399 q 0,-0.170926 0.11059,-0.291581 0.12065,-0.120648 0.29158,-0.120648 0.17092,0 0.28153,0.120648 0.12064,0.120648 0.12064,0.291581 v 2.654399 q 0,0.462509 0.17093,0.874745 0.18098,0.412236 0.48262,0.723927 0.31169,0.301636 0.72393,0.482617 0.41223,0.170926 0.87474,0.170926 0.46251,0 0.86469,-0.170926 0.41224,-0.180981 0.71388,-0.482617 0.31168,-0.311691 0.48261,-0.723927 0.18098,-0.412236 0.18098,-0.874745 v -2.654399 q 0,-0.170926 0.11059,-0.291581 0.12065,-0.120648 0.29159,-0.120648 z"
       style="font-style:normal;font-variant:normal;font-weight:bold;font-stretch:normal;font-size:5.46946px;line-height:1.25;font-family:'DO 4 Brain';-inkscape-font-specification:'DO 4 Brain Bold';fill:#0055d4;fill-opacity:1;stroke:#0055d4;stroke-width:0.551492;stroke-miterlimit:4;stroke-dasharray:none;stroke-opacity:1"
       id="path924-0-0-4-50-2" />
    <path
       d="m -111.63373,-28.745168 q 0.17093,0 0.28153,0.120648 0.12065,0.120648 0.12065,0.291581 0,0.170926 -0.12065,0.291583 -0.11059,0.110592 -0.28153,0.110592 h -2.25222 v 4.906615 q 0,0.170925 -0.12064,0.291582 -0.1106,0.110593 -0.28153,0.110593 -0.17093,0 -0.29158,-0.110593 -0.11059,-0.120648 -0.11059,-0.291582 v -4.906615 h -0.69377 q -0.17092,0 -0.29158,-0.110592 -0.1106,-0.120648 -0.1106,-0.291583 0,-0.170926 0.1106,-0.291581 0.12065,-0.120648 0.29158,-0.120648 h 0.69375 v -2.212 q 0,-0.170926 0.1106,-0.281528 0.12064,-0.120648 0.29158,-0.120648 0.17092,0 0.28152,0.120648 0.12065,0.110593 0.12065,0.281528 v 2.212 z"
       style="font-style:normal;font-variant:normal;font-weight:bold;font-stretch:normal;font-size:5.46946px;line-height:1.25;font-family:'DO 4 Brain';-inkscape-font-specification:'DO 4 Brain Bold';fill:#0055d4;fill-opacity:1;stroke:#0055d4;stroke-width:0.551492;stroke-miterlimit:4;stroke-dasharray:none;stroke-opacity:1"
       id="path926-0-3-5-0-7" />
    <path
       d="m -107.9482,-27.890297 q -0.4625,0 -0.87474,0.180981 -0.41224,0.170926 -0.72393,0.482618 -0.30163,0.301634 -0.48261,0.713871 -0.17093,0.402183 -0.17093,0.864691 0,0.361962 0.10054,0.683708 0.11059,0.321746 0.30163,0.593218 l 3.11691,-3.116906 q -0.57311,-0.402183 -1.26687,-0.402183 z m 2.64435,1.83998 q 0.17092,0 0.28153,0.120648 0.12064,0.110593 0.12064,0.281528 0,0.633436 -0.2413,1.19649 -0.24131,0.552999 -0.65355,0.965236 -0.41223,0.412236 -0.96523,0.653545 -0.553,0.241305 -1.18644,0.241305 -0.63343,0 -1.18643,-0.231251 -0.54295,-0.241309 -0.96524,-0.653546 -0.0101,0 -0.0101,-0.01011 -0.0101,-0.01011 -0.0101,-0.01011 -0.41224,-0.42229 -0.65355,-0.965236 -0.23125,-0.552999 -0.23125,-1.186435 0,-0.633436 0.24131,-1.186435 0.24131,-0.553002 0.65354,-0.965237 0.41224,-0.412235 0.96524,-0.653545 0.56305,-0.241309 1.19649,-0.241309 0.61333,0 1.16632,0.231256 0.553,0.231254 0.98535,0.663598 0.12065,0.120648 0.12065,0.291583 0,0.16087 -0.12065,0.281527 l -3.42859,3.428596 q 0.27148,0.191038 0.59322,0.301638 0.32175,0.100537 0.68371,0.100537 0.46251,0 0.86469,-0.170926 0.41224,-0.180981 0.71387,-0.482618 0.31169,-0.31169 0.48262,-0.723926 0.18098,-0.412236 0.18098,-0.874746 0,-0.170925 0.11059,-0.281526 0.12065,-0.120648 0.29158,-0.120648 z"
       style="font-style:normal;font-variant:normal;font-weight:bold;font-stretch:normal;font-size:5.46946px;line-height:1.25;font-family:'DO 4 Brain';-inkscape-font-specification:'DO 4 Brain Bold';fill:#0055d4;fill-opacity:1;stroke:#0055d4;stroke-width:0.551492;stroke-miterlimit:4;stroke-dasharray:none;stroke-opacity:1"
       id="path928-7-5-5-7-6" />
    <path
       d="m -103.04347,-22.652352 q -0.17092,0 -0.29158,-0.110593 -0.11059,-0.120648 -0.11059,-0.291582 0,-0.170926 0.11059,-0.281528 0.12065,-0.120648 0.29158,-0.120648 h 3.358218 q 0.26142,0 0.45246,-0.191036 0.20109,-0.201091 0.20109,-0.462509 0,-0.08044 -0.0302,-0.16087 -0.0201,-0.0905 -0.10054,-0.180981 -0.0804,-0.09048 -0.24131,-0.170926 -0.15081,-0.0905 -0.41223,-0.170926 l -3.177218,-1.055746 q -0.12065,-0.04022 -0.3519,-0.120648 -0.22121,-0.0905 -0.4424,-0.251364 -0.22121,-0.170926 -0.38208,-0.432344 -0.16087,-0.261418 -0.16087,-0.643492 0,-0.301636 0.1106,-0.563054 0.12064,-0.271472 0.31169,-0.462509 0.20109,-0.20109 0.46251,-0.31169 0.27147,-0.120648 0.5731,-0.120648 h 3.358218 q 0.17093,0 0.28153,0.120648 0.12065,0.110592 0.12065,0.281527 0,0.170926 -0.12065,0.291581 -0.11059,0.110593 -0.28153,0.110593 h -3.358218 q -0.26141,0 -0.4625,0.20109 -0.19104,0.191037 -0.19104,0.452455 0,0.08044 0.0201,0.170926 0.0302,0.08044 0.11059,0.170925 0.0804,0.0905 0.23126,0.180981 0.16087,0.08044 0.42229,0.160871 l 3.177238,1.055728 q 0.12064,0.04022 0.34185,0.130703 0.23126,0.08043 0.45246,0.251363 0.2212,0.16087 0.38207,0.422292 0.16087,0.261418 0.16087,0.643489 0,0.301637 -0.12065,0.573109 -0.11059,0.261418 -0.31169,0.462508 -0.19104,0.191037 -0.46251,0.311692 -0.26142,0.110593 -0.56305,0.110593 z"
       style="font-style:normal;font-variant:normal;font-weight:bold;font-stretch:normal;font-size:5.46946px;line-height:1.25;font-family:'DO 4 Brain';-inkscape-font-specification:'DO 4 Brain Bold';fill:#0055d4;fill-opacity:1;stroke:#0055d4;stroke-width:0.551492;stroke-miterlimit:4;stroke-dasharray:none;stroke-opacity:1"
       id="path930-7-5-8-9-5" />
    <path
       style="fill:none;fill-rule:evenodd;stroke:#ff0066;stroke-width:1.49648;stroke-miterlimit:4;stroke-dasharray:4.48945, 4.48945;stroke-dashoffset:0;stroke-opacity:1"
       d="m -132.56975,-35.264524 c -0.14673,-0.0094 -0.29377,-0.01368 -0.44071,-0.01305 -0.49416,0.0021 -0.98734,0.06054 -1.46433,0.175366 0,0.918338 0,2.148723 0,3.067089"
       id="path989-5"
       sodipodi:nodetypes="cscc" />
    <path
       style="fill:none;fill-rule:evenodd;stroke:#ff0066;stroke-width:1.49648;stroke-miterlimit:4;stroke-dasharray:4.48945, 4.48945;stroke-dashoffset:0;stroke-opacity:1"
       d="m -132.71837,-31.021108 c 0.75949,-0.371105 1.42189,-1.012916 1.79536,-1.961045"
       id="path918-5"
       sodipodi:nodetypes="cc" />
    <path
       style="fill:none;stroke:#ff0066;stroke-width:1.49648;stroke-linecap:butt;stroke-linejoin:miter;stroke-miterlimit:4;stroke-dasharray:4.48945, 4.48945;stroke-dashoffset:0;stroke-opacity:1"
       d="m -139.06836,-35.6404 v -7.064214 h 3.11744"
       id="path962-7"
       sodipodi:nodetypes="ccc" />
    <path
       d="m -125.30868,-35.064643 q 0.38103,0 0.71236,-0.140815 0.33961,-0.149099 0.58811,-0.397597 0.25679,-0.256782 0.3976,-0.596397 0.1491,-0.339614 0.1491,-0.720644 0,-0.381032 -0.1491,-0.712362 -0.14081,-0.339615 -0.3976,-0.588113 -0.2485,-0.256782 -0.58811,-0.397597 -0.33133,-0.1491 -0.71236,-0.1491 -0.38103,0 -0.72065,0.1491 -0.33961,0.140815 -0.59639,0.397597 -0.2485,0.248498 -0.3976,0.588113 -0.14082,0.33133 -0.14082,0.712362 0,0.38103 0.14082,0.720644 0.1491,0.339615 0.3976,0.596397 0.25678,0.248498 0.59639,0.397597 0.33962,0.140815 0.72065,0.140815 z m 0,-4.365287 q 0.52185,0 0.97743,0.198799 0.45558,0.198799 0.79519,0.538413 0.33961,0.339614 0.53841,0.795195 0.1988,0.45558 0.1988,0.977427 v 2.186785 q 0,0.140815 -0.0994,0.240215 -0.0911,0.09112 -0.23193,0.09112 -0.14082,0 -0.24021,-0.09112 -0.0911,-0.0994 -0.0911,-0.240215 v -0.48043 q -0.3479,0.372747 -0.82833,0.596395 -0.47215,0.215365 -1.01885,0.215365 -0.52184,0 -0.98571,-0.198798 -0.45558,-0.198798 -0.79519,-0.538413 -0.33962,-0.339615 -0.53841,-0.795195 -0.1988,-0.463863 -0.1988,-0.985709 0,-0.521847 0.1988,-0.977427 0.19879,-0.455581 0.53841,-0.795195 0.33961,-0.339614 0.79519,-0.538413 0.46387,-0.198799 0.98571,-0.198799 z"
       style="font-style:normal;font-variant:normal;font-weight:bold;font-stretch:normal;font-size:10.5833px;line-height:1.25;font-family:'DO 4 Brain';-inkscape-font-specification:'DO 4 Brain Bold';fill:#0055d4;fill-opacity:1;stroke:#0055d4;stroke-width:0.551392;stroke-miterlimit:4;stroke-dasharray:none;stroke-opacity:1"
       id="path995-3" />
    <path
       d="m -119.14402,-35.064643 q 0.38103,0 0.71236,-0.140815 0.33962,-0.149099 0.58811,-0.397597 0.25679,-0.256782 0.3976,-0.596397 0.1491,-0.339614 0.1491,-0.720644 0,-0.381032 -0.1491,-0.712362 -0.14081,-0.339615 -0.3976,-0.588113 -0.24849,-0.256782 -0.58811,-0.397597 -0.33133,-0.1491 -0.71236,-0.1491 -0.38103,0 -0.72064,0.1491 -0.33962,0.140815 -0.5964,0.397597 -0.2485,0.248498 -0.3976,0.588113 -0.14081,0.33133 -0.14081,0.712362 0,0.38103 0.14081,0.720644 0.1491,0.339615 0.3976,0.596397 0.25678,0.248498 0.5964,0.397597 0.33961,0.140815 0.72064,0.140815 z m 0,-4.365287 q 0.52185,0 0.97743,0.198799 0.45558,0.198799 0.79519,0.538413 0.33962,0.339614 0.53841,0.795195 0.1988,0.45558 0.1988,0.977427 v 2.186785 q 0,0.521846 -0.1988,0.977426 -0.19879,0.455581 -0.53841,0.795195 -0.33961,0.339615 -0.79519,0.538413 -0.45558,0.198798 -0.97743,0.198798 -0.14081,0 -0.24021,-0.0994 -0.0994,-0.09112 -0.0994,-0.231931 0,-0.140816 0.0994,-0.240215 0.0994,-0.09112 0.24021,-0.09112 0.38103,0 0.71236,-0.149098 0.33962,-0.140817 0.58811,-0.397598 0.25679,-0.248498 0.3976,-0.588112 0.1491,-0.331332 0.1491,-0.712362 v -0.48043 q -0.3479,0.372747 -0.82833,0.596395 -0.47214,0.215366 -1.01884,0.215366 -0.52184,0 -0.98571,-0.198799 -0.45558,-0.198798 -0.7952,-0.538413 -0.33961,-0.339615 -0.53841,-0.795194 -0.19879,-0.463864 -0.19879,-0.98571 0,-0.521847 0.19879,-0.977427 0.1988,-0.45558 0.53841,-0.795195 0.33962,-0.339614 0.7952,-0.538413 0.46387,-0.198799 0.98571,-0.198799 z"
       style="font-style:normal;font-variant:normal;font-weight:bold;font-stretch:normal;font-size:10.5833px;line-height:1.25;font-family:'DO 4 Brain';-inkscape-font-specification:'DO 4 Brain Bold';fill:#0055d4;fill-opacity:1;stroke:#0055d4;stroke-width:0.551392;stroke-miterlimit:4;stroke-dasharray:none;stroke-opacity:1"
       id="path997-5" />
    <path
       d="m -112.97935,-35.064643 q 0.38103,0 0.71236,-0.140815 0.33962,-0.149099 0.58811,-0.397597 0.25679,-0.256782 0.3976,-0.596397 0.1491,-0.339614 0.1491,-0.720644 0,-0.381032 -0.1491,-0.712362 -0.14081,-0.339615 -0.3976,-0.588113 -0.24849,-0.256782 -0.58811,-0.397597 -0.33133,-0.1491 -0.71236,-0.1491 -0.38103,0 -0.72065,0.1491 -0.33961,0.140815 -0.59639,0.397597 -0.2485,0.248498 -0.3976,0.588113 -0.14082,0.33133 -0.14082,0.712362 0,0.38103 0.14082,0.720644 0.1491,0.339615 0.3976,0.596397 0.25678,0.248498 0.59639,0.397597 0.33962,0.140815 0.72065,0.140815 z m 0,-4.365287 q 0.52185,0 0.97743,0.198799 0.45558,0.198799 0.79519,0.538413 0.33961,0.339614 0.53841,0.795195 0.1988,0.45558 0.1988,0.977427 v 2.186785 q 0,0.521846 -0.1988,0.977426 -0.1988,0.455581 -0.53841,0.795195 -0.33961,0.339615 -0.79519,0.538413 -0.45558,0.198798 -0.97743,0.198798 -0.14082,0 -0.24022,-0.0994 -0.0994,-0.09112 -0.0994,-0.231931 0,-0.140816 0.0994,-0.240215 0.0994,-0.09112 0.24022,-0.09112 0.38103,0 0.71236,-0.149098 0.33962,-0.140817 0.58811,-0.397598 0.25679,-0.248498 0.3976,-0.588112 0.1491,-0.331332 0.1491,-0.712362 v -0.48043 q -0.3479,0.372747 -0.82833,0.596395 -0.47215,0.215366 -1.01884,0.215366 -0.52185,0 -0.98571,-0.198799 -0.45558,-0.198798 -0.7952,-0.538413 -0.33961,-0.339615 -0.53841,-0.795194 -0.1988,-0.463864 -0.1988,-0.98571 0,-0.521847 0.1988,-0.977427 0.1988,-0.45558 0.53841,-0.795195 0.33962,-0.339614 0.7952,-0.538413 0.46386,-0.198799 0.98571,-0.198799 z"
       style="font-style:normal;font-variant:normal;font-weight:bold;font-stretch:normal;font-size:10.5833px;line-height:1.25;font-family:'DO 4 Brain';-inkscape-font-specification:'DO 4 Brain Bold';fill:#0055d4;fill-opacity:1;stroke:#0055d4;stroke-width:0.551392;stroke-miterlimit:4;stroke-dasharray:none;stroke-opacity:1"
       id="path999-9" />
    <path
       id="path1001-6"
       style="font-style:normal;font-variant:normal;font-weight:bold;font-stretch:normal;font-size:10.5833px;line-height:1.25;font-family:'DO 4 Brain';-inkscape-font-specification:'DO 4 Brain Bold';fill:#0055d4;fill-opacity:1;stroke:#0055d4;stroke-width:0.551392;stroke-miterlimit:4;stroke-dasharray:none;stroke-opacity:1"
       d="m -106.81873,-34.533935 c -0.88496,-0.01381 -1.71948,0.68664 -1.83566,1.568387 -0.0699,0.462327 0.0344,0.951067 0.31153,1.330761 0.85594,-0.855939 1.71188,-1.711878 2.56781,-2.567817 -0.30242,-0.215845 -0.67193,-0.334314 -1.04368,-0.331331 z m 2.1785,1.51584 c 0.25478,-0.0066 0.37915,0.272934 0.32647,0.492993 -0.0504,1.168115 -1.02482,2.205985 -2.18529,2.33704 -0.80745,0.110078 -1.65296,-0.200927 -2.19141,-0.814442 -0.74318,-0.788682 -0.85858,-2.074057 -0.27852,-2.986897 0.51539,-0.87145 1.58855,-1.356472 2.58302,-1.170564 0.53241,0.09676 1.05387,0.360888 1.40059,0.78112 0.10304,0.176036 -0.008,0.369397 -0.15048,0.481673 -0.91156,0.911566 -1.82313,1.823132 -2.73469,2.734698 0.69717,0.515082 1.75366,0.417375 2.35245,-0.207084 0.36421,-0.360866 0.55754,-0.874576 0.55239,-1.384343 0.0241,-0.153535 0.17344,-0.268025 0.32547,-0.264194 z" />
    <path
       d="m -100.65002,-30.83131 c 0.25402,0 0.49148,-0.04694 0.712358,-0.140815 0.22641,-0.0994 0.42245,-0.231932 0.58812,-0.397597 0.17119,-0.171188 0.30372,-0.369987 0.3976,-0.596397 0.0994,-0.226409 0.14909,-0.466624 0.14909,-0.720644 0,-0.254021 -0.0497,-0.491475 -0.14909,-0.712362 -0.0939,-0.22641 -0.22641,-0.422448 -0.3976,-0.588113 -0.16567,-0.171188 -0.36171,-0.30372 -0.58812,-0.397597 -0.220878,-0.0994 -0.458338,-0.1491 -0.712358,-0.1491 -0.25402,0 -0.49424,0.0497 -0.72065,0.1491 -0.2264,0.09388 -0.4252,0.226409 -0.59639,0.397597 -0.16567,0.165665 -0.2982,0.361703 -0.3976,0.588113 -0.0939,0.220887 -0.14081,0.458341 -0.14081,0.712362 0,0.25402 0.0469,0.494235 0.14081,0.720644 0.0994,0.22641 0.23193,0.425209 0.3976,0.596397 0.17119,0.165665 0.36999,0.298198 0.59639,0.397597 0.22641,0.09388 0.46663,0.140815 0.72065,0.140815 z m 2.178508,-12.474213 c -0.0939,0 0.17118,0.03313 0.23193,0.0994 0.0663,0.06075 0.0994,0.138057 0.0994,0.231931 v 10.287429 c 0,0.347897 -0.0663,0.676467 -0.1988,0.985709 -0.13253,0.30372 -0.31201,0.568785 -0.53841,0.795195 -0.22641,0.22641 -0.49148,0.405881 -0.7952,0.538413 -0.30372,0.132532 -0.629528,0.198798 -0.977428,0.198798 -0.3479,0 -0.67647,-0.06627 -0.98571,-0.198798 -0.30372,-0.132532 -0.56878,-0.312003 -0.79519,-0.538413 -0.22641,-0.22641 -0.40588,-0.491475 -0.53842,-0.795195 -0.13253,-0.309242 -0.19879,-0.637812 -0.19879,-0.985709 0,-0.347898 0.0663,-0.673707 0.19879,-0.977427 0.13254,-0.303721 0.31201,-0.568786 0.53842,-0.795195 0.22641,-0.226409 0.49147,-0.40588 0.79519,-0.538413 0.30924,-0.132533 0.63781,-0.198799 0.98571,-0.198799 0.36447,0 0.704078,0.07455 1.018848,0.223648 0.32028,0.143577 0.5964,0.339615 0.82833,0.588114 v -8.589357 c 0,-0.09388 0.0304,-0.171188 0.0911,-0.231931 0.0663,-0.06627 0.33409,-0.0994 0.24021,-0.0994 z"
       style="font-style:normal;font-variant:normal;font-weight:bold;font-stretch:normal;font-size:10.5833px;line-height:1.25;font-family:'DO 4 Brain';-inkscape-font-specification:'DO 4 Brain Bold';fill:#0055d4;fill-opacity:1;stroke:#0055d4;stroke-width:0.551392;stroke-miterlimit:4;stroke-dasharray:none;stroke-opacity:1"
       id="path1003-1"
       sodipodi:nodetypes="scscscccscscscccsscsscssscscssscsccssss" />
    <path
       style="fill:none;fill-rule:evenodd;stroke:#0055d4;stroke-width:1.79578;stroke-miterlimit:4;stroke-dasharray:none;stroke-opacity:1"
       d="m -78.004277,-44.324148 c 3.942594,5e-6 0.620914,4e-6 4.563515,4e-6 0,0 0.0084,6.399626 0.0084,7.799419 0.687192,0.280111 1.319394,0.688383 1.844757,1.224768 1.137523,1.113995 1.57784,2.913113 0.939541,4.393985 0.584858,0.402244 1.093503,0.923132 1.451259,1.538243 0.691246,1.190965 0.683814,3.02754 -0.223554,4.388389 l -7.885596,-0.0012 v -7.352971 c -1.972318,1.36e-4 -4.446076,-0.85726 -4.448225,-4.202372"
       id="path884-7-4-3"
       sodipodi:nodetypes="cccccccccc" />
    <path
       d="m -60.655035,-30.481544 q 0.170927,0 0.281528,0.120648 0.12065,0.120648 0.12065,0.291581 v 5.308797 q 0,0.633441 -0.241311,1.18644 -0.241308,0.552999 -0.653544,0.96524 -0.412237,0.41224 -0.965237,0.653536 -0.553001,0.241314 -1.186434,0.241314 -0.170927,0 -0.291585,-0.120593 -0.120647,-0.110666 -0.120647,-0.281536 0,-0.170963 0.120647,-0.291574 0.12065,-0.110666 0.291585,-0.110666 0.46251,0 0.86469,-0.180889 0.412236,-0.170963 0.713872,-0.482611 0.311692,-0.301629 0.482618,-0.713869 0.180981,-0.402185 0.180981,-0.8647 v -0.583162 q -0.422291,0.452453 -1.005454,0.723926 -0.573109,0.261418 -1.236707,0.261418 -0.633439,0 -1.196491,-0.241309 -0.553001,-0.241308 -0.965237,-0.653545 -0.412234,-0.412236 -0.653542,-0.965235 -0.241311,-0.563055 -0.241311,-1.196491 v -2.654399 q 0,-0.170926 0.110593,-0.291581 0.120648,-0.120648 0.291582,-0.120648 0.170923,0 0.281527,0.120648 0.120647,0.120648 0.120647,0.291581 v 2.654399 q 0,0.462509 0.170926,0.874745 0.180981,0.412236 0.482619,0.723927 0.31169,0.301636 0.723926,0.482617 0.412234,0.170926 0.874745,0.170926 0.46251,0 0.86469,-0.170926 0.412236,-0.180981 0.713875,-0.482617 0.311689,-0.311691 0.482616,-0.723927 0.180982,-0.412236 0.180982,-0.874745 v -2.654399 q 0,-0.170926 0.110591,-0.291581 0.12065,-0.120648 0.291581,-0.120648 z"
       style="font-style:normal;font-variant:normal;font-weight:bold;font-stretch:normal;font-size:5.46946px;line-height:1.25;font-family:'DO 4 Brain';-inkscape-font-specification:'DO 4 Brain Bold';fill:#0055d4;fill-opacity:1;stroke:#0055d4;stroke-width:0.551492;stroke-miterlimit:4;stroke-dasharray:none;stroke-opacity:1"
       id="path924-0-0-4-50-2-4" />
    <path
       d="m -50.779606,-29.596275 q -0.462507,0 -0.874744,0.180981 -0.412237,0.170926 -0.723926,0.482618 -0.301636,0.301634 -0.482619,0.713871 -0.170926,0.402183 -0.170926,0.864691 0,0.361962 0.100539,0.683708 0.110593,0.321746 0.301636,0.593218 l 3.116908,-3.116906 q -0.573109,-0.402183 -1.266873,-0.402183 z m 2.644344,1.83998 q 0.170926,0 0.28153,0.120648 0.120647,0.110593 0.120647,0.281528 0,0.633436 -0.241308,1.19649 -0.24131,0.552999 -0.653547,0.965236 -0.412234,0.412236 -0.965234,0.653545 -0.553001,0.241305 -1.186437,0.241305 -0.633434,0 -1.186434,-0.231251 -0.542946,-0.241309 -0.965237,-0.653546 -0.01011,0 -0.01011,-0.01011 -0.01011,-0.01011 -0.01011,-0.01011 -0.412237,-0.42229 -0.653545,-0.965236 -0.231259,-0.553 -0.231259,-1.186436 0,-0.633436 0.241308,-1.186435 0.241308,-0.553002 0.653542,-0.965237 0.412237,-0.412235 0.965237,-0.653545 0.563055,-0.241309 1.196491,-0.241309 0.613328,0 1.166326,0.231256 0.553,0.231254 0.985345,0.663598 0.12065,0.120648 0.12065,0.291583 0,0.16087 -0.12065,0.281527 l -3.428579,3.428597 q 0.271474,0.191038 0.593217,0.301638 0.321744,0.100537 0.68371,0.100537 0.462508,0 0.864688,-0.170926 0.412236,-0.180981 0.713875,-0.482618 0.311689,-0.31169 0.482615,-0.723926 0.180983,-0.412236 0.180983,-0.874746 0,-0.170925 0.110591,-0.281526 0.12065,-0.120648 0.291581,-0.120648 z"
       style="font-style:normal;font-variant:normal;font-weight:bold;font-stretch:normal;font-size:5.46946px;line-height:1.25;font-family:'DO 4 Brain';-inkscape-font-specification:'DO 4 Brain Bold';fill:#0055d4;fill-opacity:1;stroke:#0055d4;stroke-width:0.551492;stroke-miterlimit:4;stroke-dasharray:none;stroke-opacity:1"
       id="path928-7-5-5-7-6-8" />
    <path
       d="m -45.874876,-24.35833 q -0.170926,0 -0.291582,-0.110593 -0.110593,-0.120648 -0.110593,-0.291582 0,-0.170926 0.110593,-0.281528 0.12065,-0.120648 0.291582,-0.120648 h 3.358216 q 0.261419,0 0.452458,-0.191036 0.201092,-0.201091 0.201092,-0.462509 0,-0.08044 -0.0302,-0.16087 -0.02011,-0.0905 -0.100539,-0.180981 -0.0804,-0.09048 -0.24131,-0.170926 -0.15081,-0.0905 -0.412229,-0.170926 l -3.177214,-1.055746 q -0.12065,-0.04022 -0.35191,-0.120648 -0.221202,-0.0905 -0.442399,-0.251364 -0.221199,-0.170926 -0.382071,-0.432344 -0.16087,-0.261418 -0.16087,-0.643492 0,-0.301636 0.110594,-0.563054 0.120644,-0.271472 0.311689,-0.462509 0.201094,-0.20109 0.462511,-0.31169 0.271473,-0.120648 0.573106,-0.120648 h 3.358213 q 0.170931,0 0.28153,0.120648 0.12065,0.110592 0.12065,0.281527 0,0.170926 -0.12065,0.291581 -0.110591,0.110593 -0.28153,0.110593 h -3.358213 q -0.261417,0 -0.462505,0.20109 -0.191037,0.191037 -0.191037,0.452455 0,0.08044 0.02011,0.170926 0.03017,0.08044 0.110593,0.170925 0.08044,0.0905 0.231259,0.180981 0.160867,0.08044 0.422286,0.160871 l 3.177241,1.055728 q 0.120639,0.04022 0.341849,0.130703 0.231259,0.08043 0.452459,0.251363 0.2212,0.16087 0.382071,0.422292 0.16087,0.261418 0.16087,0.643489 0,0.301637 -0.12065,0.573109 -0.110591,0.261418 -0.31169,0.462508 -0.19104,0.191037 -0.46251,0.311692 -0.261422,0.110593 -0.563049,0.110593 z"
       style="font-style:normal;font-variant:normal;font-weight:bold;font-stretch:normal;font-size:5.46946px;line-height:1.25;font-family:'DO 4 Brain';-inkscape-font-specification:'DO 4 Brain Bold';fill:#0055d4;fill-opacity:1;stroke:#0055d4;stroke-width:0.551492;stroke-miterlimit:4;stroke-dasharray:none;stroke-opacity:1"
       id="path930-7-5-8-9-5-5" />
    <path
       style="fill:none;fill-rule:evenodd;stroke:#ff0066;stroke-width:1.49648;stroke-miterlimit:4;stroke-dasharray:4.48945, 4.48945;stroke-dashoffset:0;stroke-opacity:1"
       d="m -75.401155,-36.970502 c -0.146738,-0.0094 -0.293775,-0.01368 -0.440716,-0.01305 -0.494155,0.0021 -0.987333,0.06054 -1.464326,0.175366 0,0.918338 0,2.148723 0,3.067089"
       id="path989-5-1"
       sodipodi:nodetypes="cscc" />
    <path
       style="fill:none;fill-rule:evenodd;stroke:#ff0066;stroke-width:1.49648;stroke-miterlimit:4;stroke-dasharray:4.48945, 4.48945;stroke-dashoffset:0;stroke-opacity:1"
       d="m -75.549774,-32.727086 c 0.759484,-0.371105 1.421887,-1.012916 1.795359,-1.961045"
       id="path918-5-4"
       sodipodi:nodetypes="cc" />
    <path
       style="fill:none;stroke:#ff0066;stroke-width:1.49648;stroke-linecap:butt;stroke-linejoin:miter;stroke-miterlimit:4;stroke-dasharray:4.48945, 4.48945;stroke-dashoffset:0;stroke-opacity:1"
       d="m -81.899766,-37.346378 v -7.064214 h 3.117439"
       id="path962-7-5"
       sodipodi:nodetypes="ccc" />
    <path
       d="m -68.140092,-36.770621 q 0.381032,0 0.712365,-0.140815 0.339611,-0.149099 0.58811,-0.397597 0.256784,-0.256782 0.397597,-0.596397 0.149101,-0.339614 0.149101,-0.720644 0,-0.381032 -0.149101,-0.712362 -0.140813,-0.339615 -0.397597,-0.588113 -0.248499,-0.256782 -0.58811,-0.397597 -0.331333,-0.149099 -0.712365,-0.149099 -0.381029,0 -0.720645,0.149099 -0.339611,0.140815 -0.596395,0.397597 -0.248496,0.248498 -0.397597,0.588113 -0.140817,0.33133 -0.140817,0.712362 0,0.38103 0.140817,0.720644 0.149101,0.339615 0.397597,0.596397 0.256784,0.248498 0.596395,0.397597 0.339616,0.140815 0.720645,0.140815 z m 0,-4.365287 q 0.521849,0 0.977429,0.1988 0.455579,0.198798 0.795195,0.538412 0.339611,0.339614 0.538411,0.795195 0.1988,0.45558 0.1988,0.977427 v 2.186785 q 0,0.140816 -0.0994,0.240216 -0.09112,0.09112 -0.231934,0.09112 -0.140817,0 -0.240213,-0.09112 -0.09112,-0.0994 -0.09112,-0.240216 v -0.48043 q -0.347898,0.372747 -0.828328,0.596395 -0.472149,0.215365 -1.018844,0.215365 -0.521846,0 -0.985711,-0.198798 -0.455578,-0.198798 -0.795192,-0.538413 -0.339616,-0.339615 -0.538413,-0.795195 -0.1988,-0.463863 -0.1988,-0.985709 0,-0.521847 0.1988,-0.977427 0.198797,-0.455581 0.538413,-0.795195 0.339614,-0.339614 0.795192,-0.538412 0.463865,-0.1988 0.985711,-0.1988 z"
       style="font-style:normal;font-variant:normal;font-weight:bold;font-stretch:normal;font-size:10.5833px;line-height:1.25;font-family:'DO 4 Brain';-inkscape-font-specification:'DO 4 Brain Bold';fill:#0055d4;fill-opacity:1;stroke:#0055d4;stroke-width:0.551392;stroke-miterlimit:4;stroke-dasharray:none;stroke-opacity:1"
       id="path995-3-5" />
    <path
       d="m -61.975427,-36.770621 q 0.381029,0 0.712361,-0.140815 0.339614,-0.149099 0.588111,-0.397597 0.256783,-0.256782 0.397597,-0.596397 0.149098,-0.339614 0.149098,-0.720644 0,-0.381032 -0.149098,-0.712362 -0.140814,-0.339615 -0.397597,-0.588113 -0.248497,-0.256782 -0.588111,-0.397597 -0.331332,-0.149099 -0.712361,-0.149099 -0.381032,0 -0.720646,0.149099 -0.339613,0.140815 -0.596397,0.397597 -0.248499,0.248498 -0.397597,0.588113 -0.140817,0.33133 -0.140817,0.712362 0,0.38103 0.140817,0.720644 0.149098,0.339615 0.397597,0.596397 0.256784,0.248498 0.596397,0.397597 0.339614,0.140815 0.720646,0.140815 z m 0,-4.365287 q 0.521846,0 0.977426,0.1988 0.455578,0.198798 0.795195,0.538412 0.339614,0.339614 0.538411,0.795195 0.1988,0.45558 0.1988,0.977427 v 2.186785 q 0,0.521846 -0.1988,0.977426 -0.198797,0.455581 -0.538411,0.795195 -0.339617,0.339615 -0.795195,0.538413 -0.45558,0.198798 -0.977426,0.198798 -0.140817,0 -0.240215,-0.0994 -0.0994,-0.09112 -0.0994,-0.231931 0,-0.140816 0.0994,-0.240215 0.0994,-0.09112 0.240215,-0.09112 0.381029,0 0.712361,-0.149098 0.339614,-0.140817 0.588111,-0.397598 0.256783,-0.248497 0.397597,-0.588112 0.149098,-0.331332 0.149098,-0.712362 v -0.48043 q -0.347895,0.372747 -0.828325,0.596395 -0.472147,0.215366 -1.018842,0.215366 -0.521846,0 -0.98571,-0.198798 -0.455581,-0.198799 -0.795198,-0.538414 -0.339611,-0.339614 -0.538411,-0.795194 -0.198797,-0.463864 -0.198797,-0.98571 0,-0.521847 0.198797,-0.977426 0.1988,-0.455581 0.538411,-0.795196 0.339617,-0.339613 0.795198,-0.538413 0.463864,-0.198799 0.98571,-0.198799 z"
       style="font-style:normal;font-variant:normal;font-weight:bold;font-stretch:normal;font-size:10.5833px;line-height:1.25;font-family:'DO 4 Brain';-inkscape-font-specification:'DO 4 Brain Bold';fill:#0055d4;fill-opacity:1;stroke:#0055d4;stroke-width:0.551392;stroke-miterlimit:4;stroke-dasharray:none;stroke-opacity:1"
       id="path997-5-7" />
    <path
       id="path1001-6-6"
       style="font-style:normal;font-variant:normal;font-weight:bold;font-stretch:normal;font-size:10.5833px;line-height:1.25;font-family:'DO 4 Brain';-inkscape-font-specification:'DO 4 Brain Bold';fill:#0055d4;fill-opacity:1;stroke:#0055d4;stroke-width:0.551392;stroke-miterlimit:4;stroke-dasharray:none;stroke-opacity:1"
       d="m -49.650144,-36.239913 c -0.884952,-0.01381 -1.719477,0.68664 -1.835653,1.568387 -0.06987,0.462327 0.03443,0.951067 0.311526,1.330761 0.855937,-0.855939 1.711878,-1.711878 2.567815,-2.567817 -0.302429,-0.215845 -0.671933,-0.334314 -1.043688,-0.331331 z m 2.178502,1.51584 c 0.254783,-0.0066 0.379151,0.272934 0.326477,0.492993 -0.05045,1.168115 -1.024826,2.205985 -2.185297,2.33704 -0.807444,0.110078 -1.652957,-0.200927 -2.191406,-0.814442 -0.74318,-0.788682 -0.858578,-2.074057 -0.278527,-2.986897 0.515393,-0.87145 1.588556,-1.356472 2.583024,-1.170564 0.532413,0.09676 1.05387,0.360888 1.400588,0.78112 0.103047,0.176036 -0.0082,0.369398 -0.150474,0.481673 -0.911563,0.911566 -1.82313,1.823132 -2.734696,2.734698 0.697172,0.515082 1.753666,0.417375 2.35245,-0.207084 0.364217,-0.360866 0.557541,-0.874576 0.552392,-1.384343 0.0241,-0.153535 0.173442,-0.268025 0.325469,-0.264194 z" />
    <path
       d="m -43.481429,-32.537288 c 0.254021,0 0.491477,-0.04694 0.712356,-0.140815 0.226412,-0.0994 0.422452,-0.231932 0.588121,-0.397597 0.171191,-0.171188 0.303721,-0.369987 0.3976,-0.596397 0.0994,-0.226409 0.14909,-0.466624 0.14909,-0.720644 0,-0.254021 -0.0497,-0.491475 -0.14909,-0.712362 -0.0939,-0.22641 -0.226409,-0.422448 -0.3976,-0.588113 -0.165669,-0.171188 -0.361709,-0.30372 -0.588121,-0.397597 -0.220879,-0.0994 -0.458335,-0.1491 -0.712356,-0.1491 -0.254021,0 -0.494236,0.0497 -0.720646,0.1491 -0.226409,0.09388 -0.425209,0.226409 -0.596397,0.397597 -0.165663,0.165665 -0.298196,0.361703 -0.397597,0.588113 -0.09388,0.220887 -0.140814,0.458341 -0.140814,0.712362 0,0.25402 0.04694,0.494235 0.140814,0.720644 0.0994,0.22641 0.231934,0.425209 0.397597,0.596397 0.171188,0.165665 0.369988,0.298198 0.596397,0.397597 0.22641,0.09388 0.466625,0.140815 0.720646,0.140815 z m 2.178508,-12.474213 c -0.0939,0 0.17118,0.03313 0.231928,0.0994 0.0663,0.06075 0.0994,0.138058 0.0994,0.231932 v 10.287428 c 0,0.347897 -0.0663,0.676467 -0.1988,0.985709 -0.132529,0.30372 -0.312009,0.568785 -0.538411,0.795195 -0.226409,0.22641 -0.491479,0.405881 -0.7952,0.538413 -0.303718,0.132532 -0.629525,0.198798 -0.977423,0.198798 -0.347898,0 -0.676469,-0.06627 -0.985711,-0.198798 -0.303718,-0.132532 -0.568788,-0.312003 -0.795194,-0.538413 -0.22641,-0.22641 -0.405879,-0.491475 -0.538414,-0.795195 -0.132533,-0.309242 -0.198798,-0.637812 -0.198798,-0.985709 0,-0.347898 0.06627,-0.673707 0.198798,-0.977427 0.132535,-0.303721 0.312004,-0.568786 0.538414,-0.795195 0.226406,-0.226409 0.491476,-0.405879 0.795194,-0.538413 0.309242,-0.132533 0.637813,-0.198799 0.985711,-0.198799 0.364463,0 0.704074,0.07455 1.018844,0.223648 0.320281,0.143577 0.5964,0.339615 0.828331,0.588114 v -8.589356 c 0,-0.09388 0.0304,-0.171188 0.0911,-0.231932 0.0663,-0.06627 0.334092,-0.0994 0.240209,-0.0994 z"
       style="font-style:normal;font-variant:normal;font-weight:bold;font-stretch:normal;font-size:10.5833px;line-height:1.25;font-family:'DO 4 Brain';-inkscape-font-specification:'DO 4 Brain Bold';fill:#0055d4;fill-opacity:1;stroke:#0055d4;stroke-width:0.551392;stroke-miterlimit:4;stroke-dasharray:none;stroke-opacity:1"
       id="path1003-1-8"
       sodipodi:nodetypes="scscscccscscscccsscsscssscscssscsccssss" />
    <path
       d="m -55.810756,-35.321766 c 0.25402,0 0.491473,-0.04694 0.712361,-0.140813 0.22641,-0.0994 0.422448,-0.231932 0.588113,-0.397598 0.171187,-0.171188 0.30372,-0.369988 0.397598,-0.596397 0.0994,-0.226409 0.149098,-0.466624 0.149098,-0.720643 0,-0.254021 -0.0497,-0.491477 -0.149098,-0.712361 -0.09388,-0.226412 -0.226411,-0.42245 -0.397598,-0.588114 -0.165665,-0.171188 -0.361703,-0.30372 -0.588113,-0.397597 -0.220888,-0.0994 -0.458341,-0.149101 -0.712361,-0.149101 -0.254022,0 -0.494237,0.0497 -0.720646,0.149101 -0.226409,0.09388 -0.425208,0.226409 -0.596397,0.397597 -0.165665,0.165664 -0.298197,0.361702 -0.397596,0.588114 -0.09388,0.220884 -0.140816,0.45834 -0.140816,0.712361 0,0.254019 0.04694,0.494234 0.140816,0.720643 0.0994,0.226409 0.231931,0.425209 0.397596,0.596397 0.171189,0.165666 0.369988,0.298199 0.596397,0.397598 0.226409,0.09388 0.466624,0.140813 0.720646,0.140813 z"
       style="font-style:normal;font-variant:normal;font-weight:bold;font-stretch:normal;font-size:10.5833px;line-height:1.25;font-family:'DO 4 Brain';-inkscape-font-specification:'DO 4 Brain Bold';fill:#ffffff;fill-opacity:1;stroke:#ff0066;stroke-width:0.551392;stroke-miterlimit:4;stroke-dasharray:none;stroke-opacity:1"
       id="path999-4"
       sodipodi:nodetypes="scscscccscscscccs" />
    <g
       id="g1029"
       style="fill:#0055d4;fill-opacity:1;stroke:#0055d4;stroke-opacity:1"
       transform="translate(-0.03940372,0.21393723)">
      <path
         d="m 30.96147,36.533311 q 0.170925,0 0.281527,0.120648 0.120648,0.120648 0.120648,0.291581 v 5.308797 q 0,0.633441 -0.241309,1.18644 -0.241309,0.552999 -0.653545,0.96524 -0.412237,0.41224 -0.965236,0.653536 -0.553001,0.241314 -1.186437,0.241314 -0.170925,0 -0.291581,-0.120593 -0.120648,-0.110666 -0.120648,-0.281536 0,-0.170963 0.120648,-0.291574 0.120648,-0.110666 0.291581,-0.110666 0.462511,0 0.864692,-0.180889 0.412236,-0.170963 0.713872,-0.482611 0.311691,-0.301629 0.482618,-0.713869 0.180981,-0.402185 0.180981,-0.8647 v -0.583162 q -0.42229,0.452453 -1.005454,0.723926 -0.573108,0.261418 -1.236709,0.261418 -0.633436,0 -1.196489,-0.241309 -0.553,-0.241308 -0.965237,-0.653545 -0.412234,-0.412236 -0.653543,-0.965235 -0.241309,-0.563055 -0.241309,-1.196491 v -2.654399 q 0,-0.170926 0.110592,-0.291581 0.120648,-0.120648 0.291581,-0.120648 0.170926,0 0.281528,0.120648 0.120648,0.120648 0.120648,0.291581 v 2.654399 q 0,0.462509 0.170925,0.874745 0.180982,0.412236 0.482618,0.723927 0.31169,0.301636 0.723927,0.482617 0.412236,0.170926 0.874745,0.170926 0.46251,0 0.864691,-0.170926 0.412236,-0.180981 0.713873,-0.482617 0.31169,-0.311691 0.482617,-0.723927 0.180982,-0.412236 0.180982,-0.874745 v -2.654399 q 0,-0.170926 0.110592,-0.291581 0.120648,-0.120648 0.291581,-0.120648 z"
         style="font-style:normal;font-variant:normal;font-weight:bold;font-stretch:normal;font-size:5.46946px;line-height:1.25;font-family:'DO 4 Brain';-inkscape-font-specification:'DO 4 Brain Bold';fill:#0055d4;fill-opacity:1;stroke:#0055d4;stroke-width:0.551492;stroke-miterlimit:4;stroke-dasharray:none;stroke-opacity:1"
         id="path924-0-0-4-50" />
      <path
         d="m 37.151365,36.563709 q 0.170925,0 0.281527,0.120648 0.120648,0.120648 0.120648,0.291581 0,0.170926 -0.120648,0.291583 -0.110592,0.110592 -0.281527,0.110592 h -2.252217 v 4.906615 q 0,0.170925 -0.120648,0.291582 -0.110593,0.110593 -0.281527,0.110593 -0.170926,0 -0.291581,-0.110593 -0.110593,-0.120648 -0.110593,-0.291582 v -4.906615 h -0.693764 q -0.170925,0 -0.291582,-0.110592 -0.110593,-0.120648 -0.110593,-0.291583 0,-0.170926 0.110593,-0.291581 0.120648,-0.120648 0.291582,-0.120648 h 0.693751 v -2.212 q 0,-0.170926 0.110593,-0.281528 0.120648,-0.120648 0.291581,-0.120648 0.170925,0 0.281527,0.120648 0.120648,0.110593 0.120648,0.281528 v 2.212 z"
         style="font-style:normal;font-variant:normal;font-weight:bold;font-stretch:normal;font-size:5.46946px;line-height:1.25;font-family:'DO 4 Brain';-inkscape-font-specification:'DO 4 Brain Bold';fill:#0055d4;fill-opacity:1;stroke:#0055d4;stroke-width:0.551492;stroke-miterlimit:4;stroke-dasharray:none;stroke-opacity:1"
         id="path926-0-3-5-0" />
      <path
         d="m 40.836899,37.41858 q -0.462508,0 -0.874745,0.180981 -0.412236,0.170926 -0.723926,0.482618 -0.301637,0.301634 -0.482618,0.713871 -0.170926,0.402183 -0.170926,0.864691 0,0.361962 0.100537,0.683708 0.110593,0.321746 0.301637,0.593218 l 3.116908,-3.116906 q -0.573109,-0.402183 -1.266872,-0.402183 z m 2.644344,1.83998 q 0.170926,0 0.281528,0.120648 0.120648,0.110593 0.120648,0.281528 0,0.633436 -0.241309,1.19649 -0.241309,0.552999 -0.653546,0.965236 -0.412234,0.412236 -0.965235,0.653545 -0.552999,0.241305 -1.186435,0.241305 -0.633436,0 -1.186435,-0.231251 -0.542946,-0.241309 -0.965238,-0.653546 -0.01011,0 -0.01011,-0.01011 -0.01011,-0.01011 -0.01011,-0.01011 -0.412236,-0.42229 -0.653545,-0.965235 -0.231256,-0.553 -0.231256,-1.186436 0,-0.633436 0.241309,-1.186435 0.241309,-0.553001 0.653546,-0.965237 0.412236,-0.412235 0.965235,-0.653545 0.563055,-0.241309 1.196491,-0.241309 0.613327,0 1.166326,0.231255 0.553001,0.231255 0.985344,0.663599 0.120648,0.120648 0.120648,0.291583 0,0.16087 -0.120648,0.281527 l -3.428596,3.428596 q 0.271472,0.191037 0.593218,0.301637 0.321744,0.100537 0.683708,0.100537 0.462508,0 0.864689,-0.170926 0.412237,-0.180981 0.713873,-0.482617 0.31169,-0.311691 0.482618,-0.723927 0.180981,-0.412236 0.180981,-0.874745 0,-0.170926 0.110592,-0.281527 0.120648,-0.120648 0.291582,-0.120648 z"
         style="font-style:normal;font-variant:normal;font-weight:bold;font-stretch:normal;font-size:5.46946px;line-height:1.25;font-family:'DO 4 Brain';-inkscape-font-specification:'DO 4 Brain Bold';fill:#0055d4;fill-opacity:1;stroke:#0055d4;stroke-width:0.551492;stroke-miterlimit:4;stroke-dasharray:none;stroke-opacity:1"
         id="path928-7-5-5-7" />
      <path
         d="m 45.741628,42.656525 q -0.170926,0 -0.291581,-0.110593 -0.110593,-0.120648 -0.110593,-0.291582 0,-0.170926 0.110593,-0.281528 0.120648,-0.120648 0.291581,-0.120648 h 3.358216 q 0.261419,0 0.452453,-0.191036 0.201093,-0.201091 0.201093,-0.462509 0,-0.08044 -0.03017,-0.16087 -0.02011,-0.0905 -0.100537,-0.180981 -0.08044,-0.09048 -0.241309,-0.170926 -0.150814,-0.0905 -0.412236,-0.170926 L 45.791897,39.45918 q -0.120648,-0.04022 -0.351909,-0.120648 -0.2212,-0.0905 -0.442399,-0.251364 -0.2212,-0.170926 -0.382072,-0.432344 -0.16087,-0.261418 -0.16087,-0.643492 0,-0.301636 0.110592,-0.563054 0.120648,-0.271472 0.311693,-0.462509 0.20109,-0.20109 0.462508,-0.31169 0.271472,-0.120648 0.573108,-0.120648 h 3.358217 q 0.170926,0 0.281526,0.120648 0.120648,0.110592 0.120648,0.281527 0,0.170926 -0.120648,0.291581 -0.110593,0.110593 -0.281526,0.110593 h -3.358217 q -0.261418,0 -0.462508,0.20109 -0.191037,0.191037 -0.191037,0.452455 0,0.08044 0.02011,0.170926 0.03017,0.08044 0.110593,0.170925 0.08044,0.0905 0.231255,0.180981 0.16087,0.08044 0.42229,0.160871 l 3.177234,1.055728 q 0.120648,0.04022 0.341855,0.130703 0.231253,0.08043 0.452455,0.251363 0.221199,0.16087 0.382071,0.422292 0.16087,0.261418 0.16087,0.643489 0,0.301637 -0.120648,0.573109 -0.110592,0.261418 -0.31169,0.462508 -0.191037,0.191037 -0.462508,0.311692 -0.261419,0.110593 -0.563055,0.110593 z"
         style="font-style:normal;font-variant:normal;font-weight:bold;font-stretch:normal;font-size:5.46946px;line-height:1.25;font-family:'DO 4 Brain';-inkscape-font-specification:'DO 4 Brain Bold';fill:#0055d4;fill-opacity:1;stroke:#0055d4;stroke-width:0.551492;stroke-miterlimit:4;stroke-dasharray:none;stroke-opacity:1"
         id="path930-7-5-8-9" />
    </g>
  </g>
</svg>
